# xmcd
#
# Track frame offsets: 
#        150
#        21862
#        42440
#        58917
#        78197
#        100510
#        124810
#        143825
#        165890
#        187065
#        202542
#        224895
#
# Disc length: 3262 seconds
#
# Revision: 1
# Processed by: cddbd v1.5.1PL0 Copyright (c) Steve Scherf et al.
# Submitted via: ExactAudioCopy v0.95a5
#
DISCID=a20cbc0c
DTITLE=Chris Babida - Cafe Ballads
DYEAR=2003
DGENRE=Blues
TTITLE0=Everlasting love
TTITLE1=Winter
TTITLE2=Past  love
TTITLE3=Bad boy
TTITLE4=First love
TTITLE5=Yeliya
TTITLE6=Tides of love
TTITLE7=Last night
TTITLE8=Friend  or lover
TTITLE9=Prodigal love song
TTITLE10=Love trap
TTITLE11=Leave the sadness behind
EXTD=
EXTT0=
EXTT1=
EXTT2=
EXTT3=
EXTT4=
EXTT5=
EXTT6=
EXTT7=
EXTT8=
EXTT9=
EXTT10=
EXTT11=
PLAYORDER=
